{
  "accessors": [
    {
      "bufferView": 1,
      "componentType": 5126,
      "count": 65532,
      "max": [
        0.49670472741127014,
        1.5236862897872925,
        0.779384195804596
      ],
      "min": [
        -0.5231390595436096,
        -1.0705368518829346,
        -1.208074927330017
      ],
      "type": "VEC3"
    },
    {
      "bufferView": 1,
      "byteOffset": 786384,
      "componentType": 5126,
      "count": 65532,
      "max": [
        0.9999960660934448,
        0.9999259114265442,
        0.990903377532959
      ],
      "min": [
        -0.9999994039535522,
        -0.9644474983215332,
        -0.9947282671928406
      ],
      "type": "VEC3"
    },
    {
      "bufferView": 0,
      "componentType": 5125,
      "count": 316389,
      "type": "SCALAR"
    },
    {
      "bufferView": 1,
      "byteOffset": 1572768,
      "componentType": 5126,
      "count": 65532,
      "max": [
        0.56026291847229,
        1.523520588874817,
        0.6115675568580627
      ],
      "min": [
        -0.5602422952651978,
        -1.121864914894104,
        -1.2084985971450806
      ],
      "type": "VEC3"
    },
    {
      "bufferView": 1,
      "byteOffset": 2359152,
      "componentType": 5126,
      "count": 65532,
      "max": [
        0.9999558329582214,
        0.9999989867210388,
        0.9999383091926575
      ],
      "min": [
        -0.9999932050704956,
        -0.9996340274810791,
        -0.9999430775642395
      ],
      "type": "VEC3"
    },
    {
      "bufferView": 0,
      "byteOffset": 1265556,
      "componentType": 5125,
      "count": 325662,
      "type": "SCALAR"
    },
    {
      "bufferView": 1,
      "byteOffset": 3145536,
      "componentType": 5126,
      "count": 65532,
      "max": [
        0.4909662902355194,
        1.5237882137298584,
        0.7318152189254761
      ],
      "min": [
        -0.5575529336929321,
        -1.041784405708313,
        -1.1654208898544312
      ],
      "type": "VEC3"
    },
    {
      "bufferView": 1,
      "byteOffset": 3931920,
      "componentType": 5126,
      "count": 65532,
      "max": [
        0.9878506660461426,
        0.9999936819076538,
        0.9999463558197021
      ],
      "min": [
        -0.99931800365448,
        -0.9995066523551941,
        -0.9999989867210388
      ],
      "type": "VEC3"
    },
    {
      "bufferView": 0,
      "byteOffset": 2568204,
      "componentType": 5125,
      "count": 327615,
      "type": "SCALAR"
    },
    {
      "bufferView": 1,
      "byteOffset": 4718304,
      "componentType": 5126,
      "count": 65532,
      "max": [
        0.5595600605010986,
        1.523121953010559,
        0.7843230962753296
      ],
      "min": [
        -0.5582152009010315,
        -1.114641547203064,
        -1.2094603776931763
      ],
      "type": "VEC3"
    },
    {
      "bufferView": 1,
      "byteOffset": 5504688,
      "componentType": 5126,
      "count": 65532,
      "max": [
        0.9999298453330994,
        0.9992019534111023,
        0.999920129776001
      ],
      "min": [
        -0.999897301197052,
        -0.9999933838844299,
        -0.9999738335609436
      ],
      "type": "VEC3"
    },
    {
      "bufferView": 0,
      "byteOffset": 3878664,
      "componentType": 5125,
      "count": 335508,
      "type": "SCALAR"
    },
    {
      "bufferView": 1,
      "byteOffset": 6291072,
      "componentType": 5126,
      "count": 65532,
      "max": [
        0.5555258393287659,
        1.5237889289855957,
        0.6906642913818359
      ],
      "min": [
        -0.5559824109077454,
        -1.0384660959243774,
        -1.2076270580291748
      ],
      "type": "VEC3"
    },
    {
      "bufferView": 1,
      "byteOffset": 7077456,
      "componentType": 5126,
      "count": 65532,
      "max": [
        0.9999997019767761,
        0.9999966621398926,
        0.9998639822006226
      ],
      "min": [
        -0.9999932050704956,
        -0.9777927994728088,
        -0.9998011589050293
      ],
      "type": "VEC3"
    },
    {
      "bufferView": 0,
      "byteOffset": 5220696,
      "componentType": 5125,
      "count": 325887,
      "type": "SCALAR"
    },
    {
      "bufferView": 1,
      "byteOffset": 7863840,
      "componentType": 5126,
      "count": 65532,
      "max": [
        0.5564913153648376,
        1.5155946016311646,
        0.7843058109283447
      ],
      "min": [
        -0.5461435317993164,
        -1.1251916885375977,
        -1.2094646692276
      ],
      "type": "VEC3"
    },
    {
      "bufferView": 1,
      "byteOffset": 8650224,
      "componentType": 5126,
      "count": 65532,
      "max": [
        0.9999975562095642,
        0.999832034111023,
        0.9994852542877197
      ],
      "min": [
        -0.9999918937683105,
        -0.9990673661231995,
        -0.999997615814209
      ],
      "type": "VEC3"
    },
    {
      "bufferView": 0,
      "byteOffset": 6524244,
      "componentType": 5125,
      "count": 324630,
      "type": "SCALAR"
    },
    {
      "bufferView": 1,
      "byteOffset": 9436608,
      "componentType": 5126,
      "count": 65532,
      "max": [
        0.5528739094734192,
        1.506697177886963,
        0.7828356623649597
      ],
      "min": [
        -0.5598322153091431,
        -1.1252150535583496,
        -1.1877652406692505
      ],
      "type": "VEC3"
    },
    {
      "bufferView": 1,
      "byteOffset": 10222992,
      "componentType": 5126,
      "count": 65532,
      "max": [
        0.9995776414871216,
        0.9954944849014282,
        0.9991436004638672
      ],
      "min": [
        -0.9999914765357971,
        -0.9999277591705322,
        -0.9999490976333618
      ],
      "type": "VEC3"
    },
    {
      "bufferView": 0,
      "byteOffset": 7822764,
      "componentType": 5125,
      "count": 326673,
      "type": "SCALAR"
    },
    {
      "bufferView": 1,
      "byteOffset": 11009376,
      "componentType": 5126,
      "count": 65532,
      "max": [
        0.5588249564170837,
        1.5198918581008911,
        0.778763473033905
      ],
      "min": [
        -0.5590565204620361,
        -1.1233254671096802,
        -1.1907950639724731
      ],
      "type": "VEC3"
    },
    {
      "bufferView": 1,
      "byteOffset": 11795760,
      "componentType": 5126,
      "count": 65532,
      "max": [
        0.9999933242797852,
        0.9998611807823181,
        0.9902744889259338
      ],
      "min": [
        -0.9999064207077026,
        -0.9999933838844299,
        -0.9999971985816956
      ],
      "type": "VEC3"
    },
    {
      "bufferView": 0,
      "byteOffset": 9129456,
      "componentType": 5125,
      "count": 317133,
      "type": "SCALAR"
    },
    {
      "bufferView": 1,
      "byteOffset": 12582144,
      "componentType": 5126,
      "count": 65532,
      "max": [
        0.5592023730278015,
        1.5236709117889404,
        0.7808254957199097
      ],
      "min": [
        -0.5602648258209229,
        -1.1238914728164673,
        -1.205119252204895
      ],
      "type": "VEC3"
    },
    {
      "bufferView": 1,
      "byteOffset": 13368528,
      "componentType": 5126,
      "count": 65532,
      "max": [
        0.9999834895133972,
        0.9999290108680725,
        0.9998639822006226
      ],
      "min": [
        -0.999994158744812,
        -0.9999657273292542,
        -0.9999149441719055
      ],
      "type": "VEC3"
    },
    {
      "bufferView": 0,
      "byteOffset": 10397988,
      "componentType": 5125,
      "count": 303483,
      "type": "SCALAR"
    },
    {
      "bufferView": 1,
      "byteOffset": 14154912,
      "componentType": 5126,
      "count": 65532,
      "max": [
        0.5595578551292419,
        1.52358078956604,
        0.7825695276260376
      ],
      "min": [
        -0.5600570440292358,
        -1.123399019241333,
        -1.2080910205841064
      ],
      "type": "VEC3"
    },
    {
      "bufferView": 1,
      "byteOffset": 14941296,
      "componentType": 5126,
      "count": 65532,
      "max": [
        0.9999473690986633,
        0.999875009059906,
        0.9998534321784973
      ],
      "min": [
        -0.9999737739562988,
        -0.9995973110198975,
        -0.999997615814209
      ],
      "type": "VEC3"
    },
    {
      "bufferView": 0,
      "byteOffset": 11611920,
      "componentType": 5125,
      "count": 226782,
      "type": "SCALAR"
    },
    {
      "bufferView": 1,
      "byteOffset": 15727680,
      "componentType": 5126,
      "count": 41036,
      "max": [
        0.5602510571479797,
        1.5237889289855957,
        0.7842217683792114
      ],
      "min": [
        -0.5600314140319824,
        -1.1251466274261475,
        -1.2091865539550781
      ],
      "type": "VEC3"
    },
    {
      "bufferView": 1,
      "byteOffset": 16220112,
      "componentType": 5126,
      "count": 41036,
      "max": [
        0.9999558329582214,
        0.9999926090240479,
        0.9985948204994202
      ],
      "min": [
        -0.9999487400054932,
        -0.998571515083313,
        -0.9999989867210388
      ],
      "type": "VEC3"
    },
    {
      "bufferView": 0,
      "byteOffset": 12519048,
      "componentType": 5125,
      "count": 63702,
      "type": "SCALAR"
    }
  ],
  "asset": {
    "extras": {
      "author": "usd95 (https://sketchfab.com/usd95)",
      "license": "CC-BY-4.0 (http://creativecommons.org/licenses/by/4.0/)",
      "source": "https://sketchfab.com/3d-models/dolphin-01d2ea4a0b7a461caddc146938873b1f",
      "title": "Dolphin"
    },
    "generator": "Sketchfab-12.67.0",
    "version": "2.0"
  },
  "bufferViews": [
    {
      "buffer": 0,
      "byteLength": 12773856,
      "name": "floatBufferViews",
      "target": 34963
    },
    {
      "buffer": 0,
      "byteLength": 16712544,
      "byteOffset": 12773856,
      "byteStride": 12,
      "name": "floatBufferViews",
      "target": 34962
    }
  ],
  "buffers": [
    {
      "byteLength": 29486400,
      "uri": "scene.bin"
    }
  ],
  "materials": [
    {
      "doubleSided": true,
      "name": "material_0",
      "pbrMetallicRoughness": {
        "baseColorFactor": [
          0.2983305961861006,
          0.5025667305584766,
          0.5684522089150544,
          1.0
        ],
        "metallicFactor": 0.15979455094881104,
        "roughnessFactor": 0.4693148860879558
      }
    }
  ],
  "meshes": [
    {
      "name": "Object_0",
      "primitives": [
        {
          "attributes": {
            "NORMAL": 1,
            "POSITION": 0
          },
          "indices": 2,
          "material": 0,
          "mode": 4
        }
      ]
    },
    {
      "name": "Object_1",
      "primitives": [
        {
          "attributes": {
            "NORMAL": 4,
            "POSITION": 3
          },
          "indices": 5,
          "material": 0,
          "mode": 4
        }
      ]
    },
    {
      "name": "Object_2",
      "primitives": [
        {
          "attributes": {
            "NORMAL": 7,
            "POSITION": 6
          },
          "indices": 8,
          "material": 0,
          "mode": 4
        }
      ]
    },
    {
      "name": "Object_3",
      "primitives": [
        {
          "attributes": {
            "NORMAL": 10,
            "POSITION": 9
          },
          "indices": 11,
          "material": 0,
          "mode": 4
        }
      ]
    },
    {
      "name": "Object_4",
      "primitives": [
        {
          "attributes": {
            "NORMAL": 13,
            "POSITION": 12
          },
          "indices": 14,
          "material": 0,
          "mode": 4
        }
      ]
    },
    {
      "name": "Object_5",
      "primitives": [
        {
          "attributes": {
            "NORMAL": 16,
            "POSITION": 15
          },
          "indices": 17,
          "material": 0,
          "mode": 4
        }
      ]
    },
    {
      "name": "Object_6",
      "primitives": [
        {
          "attributes": {
            "NORMAL": 19,
            "POSITION": 18
          },
          "indices": 20,
          "material": 0,
          "mode": 4
        }
      ]
    },
    {
      "name": "Object_7",
      "primitives": [
        {
          "attributes": {
            "NORMAL": 22,
            "POSITION": 21
          },
          "indices": 23,
          "material": 0,
          "mode": 4
        }
      ]
    },
    {
      "name": "Object_8",
      "primitives": [
        {
          "attributes": {
            "NORMAL": 25,
            "POSITION": 24
          },
          "indices": 26,
          "material": 0,
          "mode": 4
        }
      ]
    },
    {
      "name": "Object_9",
      "primitives": [
        {
          "attributes": {
            "NORMAL": 28,
            "POSITION": 27
          },
          "indices": 29,
          "material": 0,
          "mode": 4
        }
      ]
    },
    {
      "name": "Object_10",
      "primitives": [
        {
          "attributes": {
            "NORMAL": 31,
            "POSITION": 30
          },
          "indices": 32,
          "material": 0,
          "mode": 4
        }
      ]
    }
  ],
  "nodes": [
    {
      "children": [
        1
      ],
      "matrix": [
        1.0,
        0.0,
        0.0,
        0.0,
        0.0,
        2.220446049250313e-16,
        -1.0,
        0.0,
        0.0,
        1.0,
        2.220446049250313e-16,
        0.0,
        0.0,
        0.0,
        0.0,
        1.0
      ],
      "name": "Sketchfab_model"
    },
    {
      "children": [
        2,
        3,
        4,
        5,
        6,
        7,
        8,
        9,
        10,
        11,
        12
      ],
      "name": "Merged_PM3D_Sphere3D1_1.OBJ.cleaner.materialmerger.gles"
    },
    {
      "mesh": 0,
      "name": "Object_2"
    },
    {
      "mesh": 1,
      "name": "Object_3"
    },
    {
      "mesh": 2,
      "name": "Object_4"
    },
    {
      "mesh": 3,
      "name": "Object_5"
    },
    {
      "mesh": 4,
      "name": "Object_6"
    },
    {
      "mesh": 5,
      "name": "Object_7"
    },
    {
      "mesh": 6,
      "name": "Object_8"
    },
    {
      "mesh": 7,
      "name": "Object_9"
    },
    {
      "mesh": 8,
      "name": "Object_10"
    },
    {
      "mesh": 9,
      "name": "Object_11"
    },
    {
      "mesh": 10,
      "name": "Object_12"
    }
  ],
  "scene": 0,
  "scenes": [
    {
      "name": "Sketchfab_Scene",
      "nodes": [
        0
      ]
    }
  ]
}
